<?xml version="1.0" encoding="utf-8"?>
<!-- Generator: Adobe Illustrator 25.1.0, SVG Export Plug-In . SVG Version: 6.00 Build 0)  -->
<svg version="1.1" id="Ebene_1" xmlns="http://www.w3.org/2000/svg" xmlns:xlink="http://www.w3.org/1999/xlink" x="0px" y="0px"
	 viewBox="0 0 265.1 72.3" style="enable-background:new 0 0 265.1 72.3;" xml:space="preserve">
<style type="text/css">
	.st0{fill:#FFFFFF;}
</style>
<path class="st0" d="M73.7,46.5V24.2c0-4,1-7,3-8.9c2-1.9,5-2.9,9.1-2.9h4.9v4.2h-5.7c-2.2,0-3.8,0.6-5,1.8
	c-1.2,1.2-1.8,2.9-1.8,5.2v3.8h12.4v4.2H78.1v15C78.1,46.5,73.7,46.5,73.7,46.5z M117.2,36.1c-0.6,3.3-1.9,6-4.1,7.9
	s-4.7,2.9-7.7,2.9c-1,0-2.1-0.1-3.1-0.4c-1-0.3-2-0.7-2.8-1.2c-1.9-1.1-3.3-2.6-4.4-4.5s-1.6-3.9-1.6-6.1c0-1.6,0.3-3.2,0.9-4.6
	c0.6-1.5,1.5-2.8,2.6-4c1.1-1.2,2.4-2,3.8-2.6c1.4-0.6,2.9-0.9,4.5-0.9c2.4,0,4.5,0.6,6.4,1.9s3.4,3.1,4.5,5.5l-15.3,8.5l-1.8-3.2
	l11.4-6.3c-0.7-0.8-1.5-1.4-2.4-1.8s-1.8-0.6-2.9-0.6c-2.1,0-3.9,0.8-5.3,2.4c-1.4,1.6-2.2,3.5-2.2,5.8c0,2.3,0.7,4.2,2.2,5.8
	c1.4,1.6,3.2,2.4,5.3,2.4c2,0,3.7-0.7,5-2c1.3-1.3,2.2-3.1,2.5-5.4L117.2,36.1L117.2,36.1z M120.8,12.3h4.2v34.2h-4.2V12.3z
	 M152.4,12.3v20.6c0,2.1-0.1,3.7-0.3,4.7c-0.2,1-0.5,2-1,2.9c-1,2-2.4,3.6-4.3,4.7s-3.9,1.7-6.2,1.7c-3.4,0-6.2-1.2-8.4-3.5
	c-2.2-2.3-3.3-5.2-3.3-8.7c0-1.6,0.3-3.1,0.8-4.5s1.3-2.7,2.4-3.8c1.1-1.2,2.3-2.1,3.8-2.7s3-1,4.6-1c1.2,0,2.3,0.1,3.3,0.4
	s2.1,0.7,3,1.2v4.5c-1-0.7-1.9-1.3-2.9-1.6c-1-0.4-2-0.5-3-0.5c-2.2,0-4.1,0.8-5.5,2.3c-1.4,1.5-2.2,3.5-2.2,5.9
	c0,2.4,0.7,4.3,2.1,5.8s3.2,2.2,5.4,2.2c2.2,0,4-0.8,5.4-2.3s2.1-3.5,2.1-6V12.3L152.4,12.3L152.4,12.3z M156.3,46.5V33
	c0-3.2,0.8-5.7,2.5-7.5s3.9-2.8,6.8-2.8c1.4,0,2.8,0.3,4,0.9c1.2,0.6,2.3,1.5,3.2,2.7c0.9-1.2,2-2.1,3.2-2.7c1.2-0.6,2.5-0.9,4-0.9
	c2.8,0,5,0.9,6.7,2.8c1.7,1.9,2.5,4.4,2.5,7.5v13.5H185V32.2c0-1.6-0.5-3-1.4-4s-2.2-1.5-3.7-1.5s-2.7,0.5-3.7,1.5s-1.4,2.3-1.4,4
	v14.3h-4.1V32.2c0-1.6-0.5-3-1.4-4s-2.2-1.5-3.7-1.5c-1.5,0-2.8,0.5-3.7,1.5c-0.9,1-1.4,2.3-1.4,4v14.3H156.3L156.3,46.5z
	 M212.1,46.5V34.8c0-2.5-0.7-4.4-2.1-6s-3.2-2.3-5.4-2.3c-2.2,0-4,0.8-5.4,2.2c-1.4,1.5-2.1,3.4-2.1,5.8c0,2.4,0.7,4.4,2.2,5.9
	s3.3,2.3,5.5,2.3c1,0,2-0.2,3-0.5c1-0.3,1.9-0.9,2.9-1.6v4.5c-0.9,0.5-2,0.9-3,1.2c-1.1,0.3-2.2,0.4-3.3,0.4c-1.1,0-2.2-0.2-3.3-0.5
	c-1.1-0.3-2.1-0.8-3-1.4c-1.7-1.2-3-2.6-3.9-4.3c-0.9-1.7-1.3-3.7-1.3-5.8c0-3.5,1.1-6.4,3.3-8.7c2.2-2.3,5-3.4,8.4-3.4
	c2.2,0,4.3,0.6,6.1,1.7c1.9,1.1,3.3,2.7,4.3,4.6c0.5,0.9,0.8,1.9,1,2.9c0.2,1.1,0.3,2.6,0.3,4.7v9.8L212.1,46.5L212.1,46.5z
	 M220.9,46.5V33.7c0-3.4,0.9-6.1,2.7-8.1c1.8-2,4.2-3,7.2-3s5.4,1,7.2,3c1.8,2,2.7,4.7,2.7,8.1v12.8h-4.1V33c0-1.8-0.5-3.4-1.6-4.5
	s-2.5-1.7-4.2-1.7c-1.7,0-3.1,0.6-4.2,1.7S225,31.1,225,33v13.5H220.9z M245.3,46.5V33.7c0-3.4,0.9-6.1,2.7-8.1c1.8-2,4.2-3,7.2-3
	c3,0,5.4,1,7.2,3c1.8,2,2.7,4.7,2.7,8.1v12.8H261V33c0-1.8-0.5-3.4-1.6-4.5c-1.1-1.2-2.5-1.7-4.2-1.7c-1.7,0-3.1,0.6-4.2,1.7
	s-1.6,2.7-1.6,4.5v13.5H245.3L245.3,46.5z M73.7,53.4c0-0.1,0.1-0.2,0.2-0.2h3.9c0.1,0,0.2,0.1,0.2,0.2V54c0,0.1-0.1,0.2-0.2,0.2
	h-3.1v2h2.6c0.1,0,0.2,0.1,0.2,0.2v0.5c0,0.1-0.1,0.2-0.2,0.2h-2.6v2.1h3.1c0.1,0,0.2,0.1,0.2,0.2v0.5c0,0.1-0.1,0.2-0.2,0.2h-3.9
	c-0.1,0-0.2-0.1-0.2-0.2l0,0V53.4z M79.2,53.4c0-0.1,0.1-0.2,0.2-0.2h2.2c1.9,0,3.4,1.5,3.4,3.4c0,1.9-1.5,3.4-3.4,3.4h-2.2
	c-0.1,0-0.2-0.1-0.2-0.2V53.4z M81.6,59.1c1.4,0,2.4-1,2.4-2.5c0-1.4-1-2.5-2.4-2.5h-1.3v5L81.6,59.1L81.6,59.1z M86.4,53.4
	c0-0.1,0.1-0.2,0.2-0.2h3.9c0.1,0,0.2,0.1,0.2,0.2V54c0,0.1-0.1,0.2-0.2,0.2h-3.1v2H90c0.1,0,0.2,0.1,0.2,0.2v0.5
	c0,0.1-0.1,0.2-0.2,0.2h-2.6v2.1h3.1c0.1,0,0.2,0.1,0.2,0.2v0.5c0,0.1-0.1,0.2-0.2,0.2h-3.9c-0.1,0-0.2-0.1-0.2-0.2l0,0V53.4z
	 M92,53.4c0-0.1,0.1-0.2,0.2-0.2h0.6c0.1,0,0.2,0.1,0.2,0.2v5.7h2.6c0.1,0,0.2,0.1,0.2,0.2v0.5c0,0.1-0.1,0.2-0.2,0.2h-3.5
	c-0.1,0-0.2-0.1-0.2-0.2l0,0L92,53.4L92,53.4z M96.5,59l0.2-0.4c0.1-0.1,0.2-0.2,0.3-0.1c0.5,0.4,0.8,0.7,1.6,0.7
	c0.7,0,1.1-0.4,1.1-0.9c0-0.6-0.5-1-1.5-1.3c-1-0.4-1.8-0.9-1.8-2.1c0-0.8,0.6-1.8,2.1-1.8c1,0,1.7,0.5,1.8,0.6
	c0.1,0,0.2,0.2,0.1,0.3l-0.2,0.4c-0.1,0.1-0.2,0.2-0.3,0.1c-0.4-0.2-0.8-0.5-1.3-0.5c-0.8,0-1.1,0.5-1.1,0.9c0,0.5,0.4,0.9,1.2,1.2
	c1.1,0.5,2.1,1,2.1,2.2c0,1-0.9,1.8-2.2,1.8c-1.2,0-1.9-0.6-2.1-0.8C96.5,59.3,96.4,59.2,96.5,59L96.5,59z M103.3,54.1h-1.6
	c-0.1,0-0.2-0.1-0.2-0.2l0,0v-0.5c0-0.1,0.1-0.2,0.2-0.2h4.2c0.1,0,0.2,0.1,0.2,0.2V54c0,0.1-0.1,0.2-0.2,0.2h-1.6v5.7
	c0,0.1-0.1,0.2-0.2,0.2h-0.6c-0.1,0-0.2-0.1-0.2-0.2L103.3,54.1L103.3,54.1z M105.9,59.8l3-6.5c0-0.1,0.1-0.1,0.2-0.1h0.1
	c0.1,0,0.1,0,0.2,0.1l3,6.5c0.1,0.1,0,0.2-0.2,0.2h-0.6c-0.1,0-0.2-0.1-0.2-0.2l-0.6-1.3h-3.2l-0.6,1.3c0,0.1-0.1,0.2-0.2,0.2h-0.6
	C106,60,105.9,59.9,105.9,59.8L105.9,59.8z M110.3,57.7l-1.2-2.7h-0.1l-1.2,2.7C107.9,57.7,110.3,57.7,110.3,57.7z M113.2,53.4
	c0-0.1,0.1-0.2,0.2-0.2h0.6c0.1,0,0.2,0.1,0.2,0.2v2.7h3.6v-2.7c0-0.1,0.1-0.2,0.2-0.2h0.6c0.1,0,0.2,0.1,0.2,0.2v6.4
	c0,0.1-0.1,0.2-0.2,0.2H118c-0.1,0-0.2-0.1-0.2-0.2l0,0V57h-3.6v2.8c0,0.1-0.1,0.2-0.2,0.2h-0.6c-0.1,0-0.2-0.1-0.2-0.2V53.4z
	 M120.6,53.4c0-0.1,0.1-0.2,0.2-0.2h0.6c0.1,0,0.2,0.1,0.2,0.2v5.7h2.6c0.1,0,0.2,0.1,0.2,0.2v0.5c0,0.1-0.1,0.2-0.2,0.2h-3.5
	c-0.1,0-0.2-0.1-0.2-0.2l0,0L120.6,53.4L120.6,53.4z M126.2,56.4c0-0.6,0.5-1.2,1.1-1.2c0.7,0,1.2,0.5,1.2,1.2
	c0,0.6-0.5,1.1-1.2,1.1C126.8,57.5,126.2,57,126.2,56.4z M130.2,59.8l3-6.5c0-0.1,0.1-0.1,0.2-0.1h0.1c0.1,0,0.1,0,0.2,0.1l3,6.5
	c0.1,0.1,0,0.2-0.2,0.2h-0.6c-0.1,0-0.2-0.1-0.2-0.2l-0.6-1.3h-3.2l-0.6,1.3c0,0.1-0.1,0.2-0.2,0.2h-0.6
	C130.3,60,130.2,59.9,130.2,59.8L130.2,59.8z M134.6,57.7l-1.2-2.7h-0.1l-1.2,2.7H134.6z M137.5,53.4c0-0.1,0.1-0.2,0.2-0.2h0.6
	c0.1,0,0.2,0.1,0.2,0.2v5.7h2.6c0.1,0,0.2,0.1,0.2,0.2v0.5c0,0.1-0.1,0.2-0.2,0.2h-3.5c-0.1,0-0.2-0.1-0.2-0.2L137.5,53.4
	L137.5,53.4z M142.1,53.4c0-0.1,0.1-0.2,0.2-0.2h0.6c0.1,0,0.2,0.1,0.2,0.2v4.1c0,1,0.6,1.7,1.6,1.7c1,0,1.6-0.7,1.6-1.6v-4.1
	c0-0.1,0.1-0.2,0.2-0.2h0.6c0.1,0,0.2,0.1,0.2,0.2v4.2c0,1.5-1.1,2.5-2.6,2.5c-1.5,0-2.6-1.1-2.6-2.5L142.1,53.4L142.1,53.4z
	 M149.9,53.3c0-0.1,0.1-0.2,0.2-0.2h0.1c0.1,0,0.1,0,0.2,0.1l2,5h0l2-5c0-0.1,0.1-0.1,0.2-0.1h0.2c0.1,0,0.1,0.1,0.2,0.2l1.2,6.5
	c0,0.1,0,0.2-0.2,0.2h-0.6c-0.1,0-0.2-0.1-0.2-0.1l-0.7-4.3h0l-1.8,4.5c0,0.1-0.1,0.1-0.2,0.1h-0.2c-0.1,0-0.1,0-0.2-0.1l-1.8-4.5h0
	l-0.7,4.3c0,0.1-0.1,0.1-0.2,0.1h-0.6c-0.1,0-0.2-0.1-0.2-0.2L149.9,53.3L149.9,53.3z M157.5,53.4c0-0.1,0.1-0.2,0.2-0.2h0.6
	c0.1,0,0.2,0.1,0.2,0.2v6.4c0,0.1-0.1,0.2-0.2,0.2h-0.6c-0.1,0-0.2-0.1-0.2-0.2V53.4z M160.3,53.3c0-0.1,0.1-0.2,0.2-0.2h0.1
	c0.1,0,0.2,0,0.3,0.2l4.1,4.7h0v-4.6c0-0.1,0.1-0.2,0.2-0.2h0.6c0.1,0,0.2,0.1,0.2,0.2V60c0,0.1-0.1,0.2-0.2,0.2h-0.1
	c-0.1,0-0.2,0-0.3-0.1l-4.1-4.9h0v4.7c0,0.1-0.1,0.2-0.2,0.2h-0.6c-0.1,0-0.2-0.1-0.2-0.2C160.3,59.9,160.3,53.3,160.3,53.3z
	 M167.7,53.4c0-0.1,0.1-0.2,0.2-0.2h0.6c0.1,0,0.2,0.1,0.2,0.2v6.4c0,0.1-0.1,0.2-0.2,0.2h-0.6c-0.1,0-0.2-0.1-0.2-0.2V53.4z
	 M170.4,53.4c0-0.1,0.1-0.2,0.2-0.2h0.6c0.1,0,0.2,0.1,0.2,0.2v4.1c0,1,0.6,1.7,1.6,1.7c1,0,1.6-0.7,1.6-1.6v-4.1
	c0-0.1,0.1-0.2,0.2-0.2h0.6c0.1,0,0.2,0.1,0.2,0.2v4.2c0,1.5-1.1,2.5-2.6,2.5c-1.5,0-2.6-1.1-2.6-2.5L170.4,53.4L170.4,53.4z
	 M178.1,53.3c0-0.1,0.1-0.2,0.2-0.2h0.1c0.1,0,0.1,0,0.2,0.1l2,5h0l2-5c0-0.1,0.1-0.1,0.2-0.1h0.2c0.1,0,0.1,0.1,0.2,0.2l1.2,6.5
	c0,0.1,0,0.2-0.2,0.2h-0.6c-0.1,0-0.2-0.1-0.2-0.1l-0.7-4.3h0l-1.8,4.5c0,0.1-0.1,0.1-0.2,0.1h-0.2c-0.1,0-0.1,0-0.2-0.1l-1.8-4.5h0
	l-0.7,4.3c0,0.1-0.1,0.1-0.2,0.1h-0.6c-0.1,0-0.2-0.1-0.2-0.2L178.1,53.3z M186.5,56.4c0-0.6,0.5-1.2,1.1-1.2c0.6,0,1.2,0.5,1.2,1.2
	c0,0.6-0.5,1.1-1.2,1.1C187.1,57.5,186.5,57,186.5,56.4z M191,59l0.2-0.4c0.1-0.1,0.2-0.2,0.3-0.1c0.5,0.4,0.8,0.7,1.6,0.7
	c0.7,0,1.1-0.4,1.1-0.9c0-0.6-0.5-1-1.5-1.3c-1-0.4-1.8-0.9-1.8-2.1c0-0.8,0.6-1.8,2.1-1.8c1,0,1.7,0.5,1.8,0.6
	c0.1,0,0.2,0.2,0.1,0.3l-0.2,0.4c-0.1,0.1-0.2,0.2-0.3,0.1c-0.4-0.2-0.8-0.5-1.3-0.5c-0.8,0-1.1,0.5-1.1,0.9c0,0.5,0.4,0.9,1.2,1.2
	c1.1,0.5,2.1,1,2.1,2.2c0,1-0.9,1.8-2.2,1.8c-1.2,0-1.9-0.6-2.1-0.8C191,59.3,190.9,59.2,191,59z M199.7,53.1c1,0,1.7,0.3,2.4,0.9
	c0.1,0.1,0.1,0.2,0,0.3l-0.4,0.4c-0.1,0.1-0.2,0.1-0.2,0c-0.5-0.4-1.1-0.7-1.7-0.7c-1.4,0-2.4,1.2-2.4,2.5c0,1.4,1.1,2.5,2.4,2.5
	c0.7,0,1.2-0.3,1.7-0.6c0.1-0.1,0.2-0.1,0.2,0l0.4,0.4c0.1,0.1,0.1,0.2,0,0.3c-0.7,0.6-1.5,0.9-2.4,0.9c-1.9,0-3.5-1.5-3.5-3.5
	C196.2,54.7,197.8,53.1,199.7,53.1z M203.4,53.4c0-0.1,0.1-0.2,0.2-0.2h0.6c0.1,0,0.2,0.1,0.2,0.2v2.7h3.6v-2.7
	c0-0.1,0.1-0.2,0.2-0.2h0.6c0.1,0,0.2,0.1,0.2,0.2v6.4c0,0.1-0.1,0.2-0.2,0.2h-0.6c-0.1,0-0.2-0.1-0.2-0.2V57h-3.6v2.8
	c0,0.1-0.1,0.2-0.2,0.2h-0.6c-0.1,0-0.2-0.1-0.2-0.2V53.4z M211.5,53.3c0-0.1,0.1-0.2,0.2-0.2h0.1c0.1,0,0.1,0,0.2,0.1l2,5h0l2-5
	c0-0.1,0.1-0.1,0.2-0.1h0.2c0.1,0,0.1,0.1,0.2,0.2l1.2,6.5c0,0.1,0,0.2-0.2,0.2H217c-0.1,0-0.2-0.1-0.2-0.1l-0.7-4.3h0l-1.8,4.5
	c0,0.1-0.1,0.1-0.2,0.1H214c-0.1,0-0.1,0-0.2-0.1l-1.8-4.5h0l-0.7,4.3c0,0.1-0.1,0.1-0.2,0.1h-0.6c-0.1,0-0.2-0.1-0.2-0.2
	L211.5,53.3z M219.2,53.4c0-0.1,0.1-0.2,0.2-0.2h0.6c0.1,0,0.2,0.1,0.2,0.2v6.4c0,0.1-0.1,0.2-0.2,0.2h-0.6c-0.1,0-0.2-0.1-0.2-0.2
	V53.4z M221.9,53.4c0-0.1,0.1-0.2,0.2-0.2h3.9c0.1,0,0.2,0.1,0.2,0.2V54c0,0.1-0.1,0.2-0.2,0.2h-3.1v2h2.6c0.1,0,0.2,0.1,0.2,0.2
	v0.5c0,0.1-0.1,0.2-0.2,0.2h-2.6v2.1h3.1c0.1,0,0.2,0.1,0.2,0.2v0.5c0,0.1-0.1,0.2-0.2,0.2h-3.9c-0.1,0-0.2-0.1-0.2-0.2L221.9,53.4
	L221.9,53.4z M227.5,53.4c0-0.1,0.1-0.2,0.2-0.2h2.2c1.9,0,3.4,1.5,3.4,3.4c0,1.9-1.5,3.4-3.4,3.4h-2.2c-0.1,0-0.2-0.1-0.2-0.2V53.4
	z M229.8,59.1c1.4,0,2.4-1,2.4-2.5c0-1.4-1-2.5-2.4-2.5h-1.3v5L229.8,59.1L229.8,59.1z M234.7,53.4c0-0.1,0.1-0.2,0.2-0.2h3.9
	c0.1,0,0.2,0.1,0.2,0.2V54c0,0.1-0.1,0.2-0.2,0.2h-3.1v2h2.6c0.1,0,0.2,0.1,0.2,0.2v0.5c0,0.1-0.1,0.2-0.2,0.2h-2.6v2.1h3.1
	c0.1,0,0.2,0.1,0.2,0.2v0.5c0,0.1-0.1,0.2-0.2,0.2h-3.9c-0.1,0-0.2-0.1-0.2-0.2V53.4z M240.3,53.4c0-0.1,0.1-0.2,0.2-0.2h3.9
	c0.1,0,0.2,0.1,0.2,0.2V54c0,0.1-0.1,0.2-0.2,0.2h-3.1v2h2.6c0.1,0,0.2,0.1,0.2,0.2v0.5c0,0.1-0.1,0.2-0.2,0.2h-2.6v2.1h3.1
	c0.1,0,0.2,0.1,0.2,0.2v0.5c0,0.1-0.1,0.2-0.2,0.2h-3.9c-0.1,0-0.2-0.1-0.2-0.2V53.4z M245.9,53.4c0-0.1,0.1-0.2,0.2-0.2h0.6
	c0.1,0,0.2,0.1,0.2,0.2v6.4c0,0.1-0.1,0.2-0.2,0.2h-0.6c-0.1,0-0.2-0.1-0.2-0.2V53.4z M248.3,59l0.2-0.4c0.1-0.1,0.2-0.2,0.3-0.1
	c0.5,0.4,0.8,0.7,1.6,0.7c0.7,0,1.1-0.4,1.1-0.9c0-0.6-0.5-1-1.5-1.3c-1-0.4-1.8-0.9-1.8-2.1c0-0.8,0.6-1.8,2.1-1.8
	c1,0,1.7,0.5,1.8,0.6c0.1,0,0.2,0.2,0.1,0.3l-0.2,0.4c-0.1,0.1-0.2,0.2-0.3,0.1c-0.4-0.2-0.8-0.5-1.3-0.5c-0.8,0-1.1,0.5-1.1,0.9
	c0,0.5,0.4,0.9,1.2,1.2c1.1,0.5,2.1,1,2.1,2.2c0,1-0.9,1.8-2.2,1.8c-1.2,0-1.9-0.6-2.1-0.8C248.3,59.3,248.2,59.2,248.3,59z
	 M253.9,53.4c0-0.1,0.1-0.2,0.2-0.2h3.9c0.1,0,0.2,0.1,0.2,0.2V54c0,0.1-0.1,0.2-0.2,0.2h-3.1v2h2.6c0.1,0,0.2,0.1,0.2,0.2v0.5
	c0,0.1-0.1,0.2-0.2,0.2h-2.6v2.1h3.1c0.1,0,0.2,0.1,0.2,0.2v0.5c0,0.1-0.1,0.2-0.2,0.2h-3.9c-0.1,0-0.2-0.1-0.2-0.2L253.9,53.4
	L253.9,53.4z M259.5,53.3c0-0.1,0.1-0.2,0.2-0.2h0.1c0.1,0,0.2,0,0.3,0.2l4.1,4.7h0v-4.6c0-0.1,0.1-0.2,0.2-0.2h0.6
	c0.1,0,0.2,0.1,0.2,0.2V60c0,0.1-0.1,0.2-0.2,0.2h-0.1c-0.1,0-0.2,0-0.3-0.1l-4.1-4.9h0v4.7c0,0.1-0.1,0.2-0.2,0.2h-0.6
	c-0.1,0-0.2-0.1-0.2-0.2C259.5,59.9,259.5,53.3,259.5,53.3z M24.5,0C11,0,0,11,0,24.5v47.8h21.3v-5.7h0V46.1h21.9v-7.4H21.3V32
	c0-3.9,1-7,3.1-9.1s5-3.2,8.8-3.2h9.9v-7.4h-8.5c-7.1,0-12.5,1.7-16,5.1c-3.5,3.4-5.2,8.7-5.2,15.7v33.5H5.7V24.5
	c0-10.4,8.4-18.8,18.8-18.8h26.1v42.1c0,10.4-8.5,18.8-18.8,18.8h-5.3v5.7h5.3c13.5,0,24.5-11,24.5-24.5V0H24.5z"/>
</svg>
